<svg xmlns="http://www.w3.org/2000/svg" width="100mm" height="40mm" viewBox="0 0 283.465 113.386">
  <path d="M116.663,41.736v-4.23a2.979,2.979,0,0,0-2.136-2.857L9.542,3.664c-1.154-.395-2.865-.952-4.358.208A3.89,3.89,0,0,0,3.934,7.6c.028.339.059.723.061,1.169l.31,64.087L4.273,106.81a3.606,3.606,0,0,0,1.319,2.77,3.02,3.02,0,0,0,1.84.628,3.062,3.062,0,0,0,.8-.106l.064-.018,104.777-30.9c.2-.053.365-.085.5-.112.955-.194,3.191-.646,3.181-4.264ZM110.27,39.6,10.238,67.6,9.96,10ZM10.235,103.3l.028-29.52L110.705,45.671v2.111c0,.106.006.21.016.313l.067,25.548Z"/>
  <g>
    <path d="M147.222,35.832a.863.863,0,0,1-.262-.636V14.576h-6.923a.864.864,0,0,1-.636-.262.909.909,0,0,1-.262-.673V10.834a.952.952,0,0,1,.243-.674.852.852,0,0,1,.655-.262H159.16a.9.9,0,0,1,.935.936v2.807a.9.9,0,0,1-.935.935h-6.886V35.2a.9.9,0,0,1-.243.636.85.85,0,0,1-.655.262h-3.517A.865.865,0,0,1,147.222,35.832Z"/>
    <path d="M163.467,35.832a.863.863,0,0,1-.262-.636V10.834a.952.952,0,0,1,.243-.674A.856.856,0,0,1,164.1,9.9h3.442a.9.9,0,0,1,.936.936v9.617h10.927V10.834a.911.911,0,0,1,.262-.674.868.868,0,0,1,.636-.262h3.481a.851.851,0,0,1,.654.262.948.948,0,0,1,.244.674V35.2a.9.9,0,0,1-.244.636.848.848,0,0,1-.654.262h-3.481a.895.895,0,0,1-.9-.9V25.2H168.482V35.2a.866.866,0,0,1-.262.636.911.911,0,0,1-.674.262H164.1A.866.866,0,0,1,163.467,35.832Z"/>
    <path d="M189.726,35.832a.863.863,0,0,1-.262-.636V10.834a.952.952,0,0,1,.243-.674.852.852,0,0,1,.655-.262h16.5a.9.9,0,0,1,.935.936v2.507a.848.848,0,0,1-.262.655.947.947,0,0,1-.673.243H194.591v6.549h11.451a.9.9,0,0,1,.936.936v2.357a.852.852,0,0,1-.262.655.948.948,0,0,1-.674.244H194.591v6.773h12.574a.949.949,0,0,1,.673.243.852.852,0,0,1,.263.655V35.2a.849.849,0,0,1-.263.655.949.949,0,0,1-.673.243h-16.8A.864.864,0,0,1,189.726,35.832Z"/>
    <path d="M141.459,68.577a.864.864,0,0,1-.262-.636V43.579a.952.952,0,0,1,.243-.674.852.852,0,0,1,.655-.262h10.029a10.846,10.846,0,0,1,7.111,2.133,7.593,7.593,0,0,1,2.582,6.212,7.385,7.385,0,0,1-2.582,6.119,11.051,11.051,0,0,1-7.111,2.077h-5.5v8.757a.853.853,0,0,1-.261.655.954.954,0,0,1-.674.243H142.1A.866.866,0,0,1,141.459,68.577Zm10.479-13.585a4.783,4.783,0,0,0,3.311-1.029,3.848,3.848,0,0,0,1.142-3.012,4.066,4.066,0,0,0-1.1-3.032,4.6,4.6,0,0,0-3.349-1.085h-5.39v8.158Z"/>
    <path d="M161.285,68.614a.763.763,0,0,1-.224-.561l.075-.337,8.981-24.137a1.35,1.35,0,0,1,1.347-.936h4.117a1.351,1.351,0,0,1,1.347.936l8.981,24.137.075.337a.732.732,0,0,1-.243.561.782.782,0,0,1-.543.225h-3.331a1.086,1.086,0,0,1-1.085-.711L179.061,63.6H167.984l-1.722,4.528a1.085,1.085,0,0,1-1.085.711h-3.331A.761.761,0,0,1,161.285,68.614Zm8.008-9.355h8.458l-4.229-11.527Z"/>
    <path d="M192.308,68.2a8.558,8.558,0,0,1-3.63-2.657,6.275,6.275,0,0,1-1.31-3.593.784.784,0,0,1,.225-.543.733.733,0,0,1,.561-.243h3.405a1.14,1.14,0,0,1,.674.187,2.016,2.016,0,0,1,.487.524,3.821,3.821,0,0,0,1.7,2.133,6.649,6.649,0,0,0,3.649.861,7.208,7.208,0,0,0,3.948-.879,2.751,2.751,0,0,0,1.328-2.414,2.284,2.284,0,0,0-.673-1.684,5.635,5.635,0,0,0-2.04-1.179q-1.366-.506-4.06-1.216a15.923,15.923,0,0,1-6.474-2.77,6.072,6.072,0,0,1-2.058-4.939,6.575,6.575,0,0,1,1.2-3.874,7.952,7.952,0,0,1,3.424-2.675,12.843,12.843,0,0,1,5.183-.973,12.318,12.318,0,0,1,5.37,1.085,8.854,8.854,0,0,1,3.443,2.713,6,6,0,0,1,1.254,3.237.783.783,0,0,1-.224.543.735.735,0,0,1-.562.243h-3.555a1.115,1.115,0,0,1-1.123-.674,2.9,2.9,0,0,0-1.459-2,6.8,6.8,0,0,0-6.381-.018,2.572,2.572,0,0,0-1.179,2.282,2.446,2.446,0,0,0,.6,1.685,4.885,4.885,0,0,0,1.871,1.178,33.861,33.861,0,0,0,3.7,1.142,25.84,25.84,0,0,1,5.3,1.684,6.9,6.9,0,0,1,2.9,2.357,6.483,6.483,0,0,1,.936,3.63,6.836,6.836,0,0,1-1.328,4.21,8.24,8.24,0,0,1-3.743,2.713,15.412,15.412,0,0,1-5.594.936A14.8,14.8,0,0,1,192.308,68.2Z"/>
    <path d="M218.522,68.577a.864.864,0,0,1-.262-.636V47.321h-6.923a.863.863,0,0,1-.636-.262.909.909,0,0,1-.262-.674V43.579a.947.947,0,0,1,.243-.674.852.852,0,0,1,.655-.262H230.46a.9.9,0,0,1,.935.936v2.806a.9.9,0,0,1-.935.936h-6.886v20.62a.9.9,0,0,1-.243.636.851.851,0,0,1-.655.262h-3.518A.863.863,0,0,1,218.522,68.577Z"/>
    <path d="M234.766,68.577a.867.867,0,0,1-.261-.636V43.579a.947.947,0,0,1,.243-.674.852.852,0,0,1,.655-.262H245.1a11.047,11.047,0,0,1,7.2,2.133,7.4,7.4,0,0,1,2.6,6.063,7.742,7.742,0,0,1-1.31,4.584,7.29,7.29,0,0,1-3.667,2.676l5.426,9.542a.93.93,0,0,1,.112.412.732.732,0,0,1-.243.561.78.78,0,0,1-.542.225h-3.444a1.42,1.42,0,0,1-.935-.281,2.709,2.709,0,0,1-.6-.73l-4.79-8.869h-5.127v8.982a.868.868,0,0,1-.262.636.911.911,0,0,1-.674.262H235.4A.866.866,0,0,1,234.766,68.577Zm10.217-13.884a4.954,4.954,0,0,0,3.368-.992,3.66,3.66,0,0,0,1.123-2.9,3.782,3.782,0,0,0-1.123-2.937,4.836,4.836,0,0,0-3.368-1.03h-5.2v7.859Z"/>
    <path d="M265.546,68.577a.864.864,0,0,1-.262-.636v-8.42l-8.869-15.68a2.05,2.05,0,0,1-.112-.412.73.73,0,0,1,.243-.561.78.78,0,0,1,.543-.225h3.368a1.336,1.336,0,0,1,1.16.711L267.9,54.207l6.324-10.853a1.718,1.718,0,0,1,.431-.486,1.069,1.069,0,0,1,.692-.225h3.368a.769.769,0,0,1,.786.786.794.794,0,0,1-.112.412l-8.832,15.68v8.42a.853.853,0,0,1-.262.655.954.954,0,0,1-.674.243h-3.443A.864.864,0,0,1,265.546,68.577Z"/>
    <path d="M144.565,100.947a8.556,8.556,0,0,1-3.63-2.657,6.279,6.279,0,0,1-1.31-3.592.782.782,0,0,1,.225-.543.733.733,0,0,1,.561-.243h3.406a1.14,1.14,0,0,1,.674.187,2,2,0,0,1,.486.524,3.83,3.83,0,0,0,1.7,2.133,6.656,6.656,0,0,0,3.648.861,7.2,7.2,0,0,0,3.948-.88,2.748,2.748,0,0,0,1.329-2.413,2.289,2.289,0,0,0-.674-1.685,5.638,5.638,0,0,0-2.039-1.178q-1.367-.505-4.061-1.217a15.924,15.924,0,0,1-6.474-2.769,6.077,6.077,0,0,1-2.058-4.94,6.568,6.568,0,0,1,1.2-3.873,7.956,7.956,0,0,1,3.424-2.676,12.86,12.86,0,0,1,5.183-.972,12.31,12.31,0,0,1,5.37,1.085,8.869,8.869,0,0,1,3.443,2.713,6,6,0,0,1,1.253,3.237.783.783,0,0,1-.224.543.733.733,0,0,1-.561.243h-3.556a1.116,1.116,0,0,1-1.122-.674,2.9,2.9,0,0,0-1.46-2,6.792,6.792,0,0,0-6.38-.019,2.575,2.575,0,0,0-1.179,2.283,2.437,2.437,0,0,0,.6,1.684,4.886,4.886,0,0,0,1.871,1.179,33.829,33.829,0,0,0,3.705,1.141,25.932,25.932,0,0,1,5.295,1.684,6.906,6.906,0,0,1,2.9,2.358,6.48,6.48,0,0,1,.936,3.63,6.839,6.839,0,0,1-1.329,4.21,8.249,8.249,0,0,1-3.742,2.713,15.435,15.435,0,0,1-5.595.936A14.79,14.79,0,0,1,144.565,100.947Z"/>
    <path d="M164.605,101.322a.866.866,0,0,1-.262-.637V76.323a.945.945,0,0,1,.243-.673.848.848,0,0,1,.655-.262h3.443a.9.9,0,0,1,.935.935v9.618h10.928V76.323a.909.909,0,0,1,.262-.673.863.863,0,0,1,.636-.262h3.48a.85.85,0,0,1,.655.262.949.949,0,0,1,.243.673v24.362a.9.9,0,0,1-.243.637.853.853,0,0,1-.655.261h-3.48a.893.893,0,0,1-.9-.9V90.694H169.619v9.991a.87.87,0,0,1-.262.637.913.913,0,0,1-.673.261h-3.443A.865.865,0,0,1,164.605,101.322Z"/>
    <path d="M192.881,99.375q-2.844-2.582-2.994-7.671-.038-1.085-.037-3.181,0-2.133.037-3.218.148-4.977,3.069-7.635a13.037,13.037,0,0,1,15.773,0q2.938,2.658,3.088,7.635.075,2.17.075,3.218,0,1.011-.075,3.181-.15,5.09-3.013,7.671t-7.952,2.583Q195.724,101.958,192.881,99.375Zm11.938-3.255a6.738,6.738,0,0,0,1.571-4.6q.075-2.245.075-3.031,0-.861-.075-3.032a6.645,6.645,0,0,0-1.609-4.584,5.9,5.9,0,0,0-7.9,0,6.519,6.519,0,0,0-1.572,4.584q-.037,1.086-.037,3.032,0,1.908.037,3.031a6.568,6.568,0,0,0,1.554,4.584,6,6,0,0,0,7.952.019Z"/>
    <path d="M216.09,101.322a.866.866,0,0,1-.262-.637V76.323a.949.949,0,0,1,.243-.673.848.848,0,0,1,.655-.262h10.029a10.846,10.846,0,0,1,7.111,2.133,7.6,7.6,0,0,1,2.582,6.212,7.386,7.386,0,0,1-2.582,6.118,11.046,11.046,0,0,1-7.111,2.077h-5.5v8.757a.848.848,0,0,1-.262.655.945.945,0,0,1-.673.243h-3.593A.865.865,0,0,1,216.09,101.322Zm10.478-13.585a4.789,4.789,0,0,0,3.312-1.029,3.848,3.848,0,0,0,1.141-3.013,4.063,4.063,0,0,0-1.1-3.031,4.609,4.609,0,0,0-3.35-1.085h-5.389v8.158Z"/>
  </g>
</svg>
